<?xml version="1.0" standalone="no"?>
<!DOCTYPE svg PUBLIC "-//W3C//DTD SVG 20010904//EN"
 "http://www.w3.org/TR/2001/REC-SVG-20010904/DTD/svg10.dtd">
<svg version="1.0" xmlns="http://www.w3.org/2000/svg"
 width="512.000000pt" height="512.000000pt" viewBox="0 0 512.000000 512.000000"
 preserveAspectRatio="xMidYMid meet">
<metadata>
Created by potrace 1.16, written by Peter Selinger 2001-2019
</metadata>
<g transform="translate(0.000000,512.000000) scale(0.100000,-0.100000)"
fill="#000000" stroke="none">
<path d="M2952 2699 c40 -70 54 -88 67 -83 9 4 51 18 95 30 94 29 235 32 335
9 223 -53 424 -256 477 -481 18 -77 20 -240 4 -294 -18 -63 -16 -67 53 -73 34
-4 78 -9 97 -13 34 -5 39 -2 128 88 51 51 111 120 134 153 24 33 50 68 58 77
9 10 27 39 40 65 13 27 28 51 34 55 6 4 8 8 3 8 -4 0 4 22 18 50 14 27 25 55
25 63 0 16 -814 321 -835 313 -8 -3 -15 -1 -15 4 0 5 -12 7 -27 6 -15 -2 -41
0 -58 5 -16 4 -55 11 -85 14 -30 4 -75 10 -100 15 -24 5 -48 6 -52 4 -3 -2 -9
0 -13 6 -4 6 -10 8 -13 6 -4 -2 -30 0 -57 5 -28 6 -72 12 -100 15 -27 2 -62 9
-77 15 -16 6 -39 9 -53 7 -15 -3 -22 -1 -18 5 4 6 0 8 -9 4 -9 -3 -19 -3 -22
0 -3 3 -23 7 -45 9 l-39 4 50 -91z"/>
</g>
</svg>
